<svg version="1.1" id="Layer_1" xmlns="http://www.w3.org/2000/svg" xmlns:xlink="http://www.w3.org/1999/xlink" x="0px" y="0px"
	 width="100%" viewBox="0 0 1030 276" enable-background="new 0 0 1030 276" xml:space="preserve">
<path fill="#AF1F1F" opacity="1.000000" stroke="none" 
	d="
M813.000000,277.000000 
	C542.000122,277.000000 271.500183,277.000000 1.000218,277.000000 
	C1.000145,185.000122 1.000145,93.000259 1.000073,1.000292 
	C344.333099,1.000195 687.666199,1.000195 1030.999512,1.000097 
	C1030.999634,92.999718 1030.999634,184.999435 1030.999756,276.999573 
	C958.500000,277.000000 886.000000,277.000000 813.000000,277.000000 
M608.446472,16.641405 
	C604.011841,16.431837 599.575745,16.064421 595.143433,16.105587 
	C593.751770,16.118511 592.370361,17.229805 590.506775,18.015366 
	C590.340332,18.048639 590.173828,18.081915 589.432434,17.949890 
	C589.327393,18.301107 589.222412,18.652325 588.966858,19.814480 
	C589.628662,21.971094 590.290527,24.127707 590.878113,26.897186 
	C590.904114,27.513102 590.930115,28.129019 590.048523,28.959545 
	C584.710510,29.054440 579.372498,29.149334 573.306152,29.264517 
	C571.237122,36.656292 571.814514,37.476105 578.794373,37.545940 
	C586.205811,37.620094 593.616089,37.800568 601.142212,38.693935 
	C602.208618,41.780773 603.275085,44.867611 604.337891,48.622974 
	C605.136536,49.938385 605.935181,51.253796 606.906189,53.236721 
	C607.870178,55.133324 608.834167,57.029926 609.604431,59.446949 
	C609.805725,59.943615 610.007019,60.440285 610.103882,61.783928 
	C610.126892,63.204472 610.149902,64.625015 609.776489,66.444229 
	C609.732361,66.987625 609.688293,67.531021 609.186279,68.637596 
	C603.602661,76.769020 595.943115,83.874962 596.733337,94.645988 
	C584.806213,96.088615 573.391907,97.250206 562.046997,98.891556 
	C543.955994,101.508919 526.651978,106.435509 510.893616,116.225281 
	C498.667938,123.820366 492.902161,134.705536 494.706390,148.617966 
	C497.903717,173.272507 509.673645,193.240570 531.670471,205.485443 
	C559.440735,220.944183 588.832581,222.860733 619.091125,213.047562 
	C653.928467,201.749435 674.317444,176.416534 677.533813,139.999069 
	C679.008728,123.299370 672.109985,109.443764 658.693054,104.308029 
	C651.795715,101.667862 644.247925,100.726913 636.552002,98.714401 
	C636.027039,98.685028 635.502014,98.655663 634.505859,98.076630 
	C634.174072,97.726189 633.842224,97.375748 633.486816,96.229431 
	C631.544006,89.323997 634.250244,83.795128 638.890686,79.038742 
	C645.089661,72.684929 646.724548,65.243973 644.230713,56.973480 
	C642.754517,52.077911 640.507751,47.418350 638.701050,42.617451 
	C637.569092,39.609531 636.929138,36.747852 642.385559,38.226391 
	C643.963684,38.054451 645.541748,37.882511 647.898132,37.515545 
	C649.227051,37.573311 650.556030,37.631081 652.311951,38.215858 
	C654.913330,38.029194 657.514709,37.842529 661.017151,37.454765 
	C667.973999,37.517326 674.930847,37.579884 682.326965,38.198189 
	C685.589661,38.013332 688.852295,37.828476 693.000305,37.446285 
	C696.623840,37.528469 700.247437,37.610653 703.946411,38.259972 
	C704.399902,38.555313 704.853394,38.850655 705.306885,39.145992 
	C705.440063,38.271378 705.573242,37.396763 705.638428,36.205734 
	C705.638428,36.205734 705.832153,35.946487 706.570862,35.958279 
	C707.553528,36.006775 708.536255,36.055275 709.772583,36.997074 
	C709.825012,38.327297 709.923584,39.657528 709.923279,40.987740 
	C709.912292,98.620270 709.892517,156.252792 709.873901,213.885330 
	C709.873291,215.809570 709.873840,217.733810 709.873840,219.719910 
	C719.006165,219.719910 727.379639,219.719910 736.178955,219.719910 
	C736.178955,190.741852 736.178955,162.164124 736.178955,133.624603 
	C746.706787,133.624603 756.798340,133.624603 767.126709,134.110794 
	C768.074280,134.130051 769.021912,134.149307 770.732361,134.145004 
	C781.075562,136.075119 789.005737,141.535980 793.353821,151.125885 
	C796.287537,157.596405 798.499573,164.457352 800.402954,171.318802 
	C804.487122,186.041763 808.074829,200.902222 812.124939,215.635132 
	C812.592346,217.335312 814.640259,219.772156 816.059570,219.845322 
	C823.999207,220.254639 831.970886,220.042252 840.038086,220.042252 
	C840.038086,219.141968 840.142456,218.632965 840.023010,218.183411 
	C835.247253,200.205292 830.429260,182.238388 825.664185,164.257446 
	C821.192627,147.384460 814.585266,132.060181 797.235168,124.366776 
	C797.021057,124.271812 796.977844,123.791374 796.774475,123.294548 
	C798.886414,122.371002 801.021606,121.490799 803.112244,120.515129 
	C839.990662,103.304588 840.290161,59.702892 822.974731,38.517754 
	C815.154236,28.949551 804.565369,24.002556 792.968567,20.031502 
	C792.316101,20.001261 791.663696,19.971018 790.260315,19.947865 
	C789.545288,19.737455 788.830200,19.527046 787.948669,18.881851 
	C787.306824,18.879309 786.664917,18.876764 785.226624,18.904976 
	C784.189575,18.695517 783.152588,18.486057 781.845947,17.814465 
	C780.905884,17.829039 779.965881,17.843613 778.224060,17.930239 
	C775.831116,17.686325 773.438110,17.442411 770.556213,16.704094 
	C769.044495,16.763638 767.532837,16.823183 765.097290,16.995270 
	C761.056091,16.956442 757.014954,16.917612 752.305542,16.399721 
	C739.087891,16.311623 725.870239,16.190659 712.652710,16.206587 
	C711.734802,16.207693 710.818054,17.226404 709.807617,18.557827 
	C709.721985,19.341797 709.636353,20.125765 709.005371,21.144426 
	C709.175354,22.461861 709.345398,23.779295 709.721191,25.907156 
	C709.654297,27.571791 709.587402,29.236423 709.005676,31.096958 
	C708.516235,31.687042 708.026794,32.277130 707.404663,33.027199 
	C706.755554,30.525158 706.161255,28.234201 705.588684,24.908421 
	C704.945496,21.926836 708.025208,17.202440 701.265137,17.261482 
	C675.507385,17.486444 649.747375,17.445477 623.128662,17.178942 
	C618.455872,17.176964 613.783020,17.174986 608.446472,16.641405 
M369.528625,141.629105 
	C375.320679,134.834671 381.112732,128.040253 387.101013,121.015656 
	C388.246063,122.511726 388.995026,123.389175 389.634399,124.340286 
	C408.496765,152.398483 427.829559,180.159119 445.914978,208.709839 
	C451.508606,217.540314 457.334564,221.326019 467.432251,219.964203 
	C472.730804,219.249603 478.205078,219.838028 484.594147,219.838028 
	C482.594391,216.636978 481.434723,214.632690 480.135712,212.723206 
	C456.245392,177.606094 432.363403,142.483231 408.383881,107.427078 
	C406.613342,104.838692 406.314087,103.164360 408.567963,100.565125 
	C426.029449,80.427963 443.326569,60.148159 460.650604,39.892021 
	C466.434357,33.129375 472.148438,26.307108 478.791595,18.451029 
	C470.162628,18.451029 462.838074,18.950430 455.615814,18.305136 
	C448.912323,17.706192 444.643219,19.957954 440.494141,25.249178 
	C418.297699,53.556019 395.725250,81.568169 373.252777,109.658157 
	C371.948395,111.288612 370.380219,112.707977 368.945557,113.259834 
	C368.926788,83.556862 368.920441,53.853863 368.858063,24.150984 
	C368.854370,22.396601 368.399902,20.643164 367.394043,18.467716 
	C359.172058,18.564106 350.950104,18.660498 342.008209,19.085032 
	C341.766937,21.189802 341.308380,23.295385 341.316223,25.399225 
	C341.506134,76.209229 341.746521,127.019051 341.974854,177.828903 
	C341.988007,180.749588 341.976562,183.670364 341.976562,187.098465 
	C340.245911,186.678146 339.435486,186.602478 338.728058,186.292023 
	C311.291229,174.251923 296.011688,142.120743 304.178284,113.241180 
	C307.338806,102.064545 308.712097,90.851585 307.728760,79.219597 
	C305.307037,50.572140 283.245544,25.145241 254.921432,20.280807 
	C244.525787,18.495445 233.682968,19.444489 223.073715,18.715511 
	C218.039001,18.369572 216.607819,19.826714 216.621918,24.987240 
	C216.786789,85.296242 216.696411,145.605942 216.679382,205.915451 
	C216.678253,209.913757 216.568054,213.923218 216.850235,217.903244 
	C216.929504,219.021484 218.197479,220.958603 218.970520,220.983917 
	C226.220016,221.221329 233.480438,221.124786 240.590469,221.124786 
	C240.590469,164.128006 240.590469,107.916161 240.590469,51.543365 
	C241.255890,51.427002 241.893555,51.196838 242.520584,51.222893 
	C270.300995,52.377327 280.997437,75.875320 277.218750,94.502823 
	C273.852234,111.098320 271.244720,127.474876 273.821320,144.383514 
	C276.553650,162.314331 282.104279,179.051422 294.541229,192.729294 
	C311.612823,211.504181 332.371124,222.235214 358.369873,221.213974 
	C370.286194,220.745895 368.811768,223.019730 368.869659,210.437546 
	C368.974640,187.614334 368.932129,164.790421 369.528625,141.629105 
M854.281860,210.441986 
	C854.281860,213.533554 854.281860,216.625122 854.281860,219.793335 
	C863.212769,219.793335 871.274719,219.793335 879.831543,219.793335 
	C879.831543,217.270859 879.843140,215.138855 879.829773,213.007034 
	C879.503601,161.018204 879.171326,109.029411 878.851135,57.040543 
	C878.811768,50.654556 878.923279,50.835876 884.839478,51.804512 
	C907.271606,55.477318 919.312744,79.097237 913.015991,100.832596 
	C910.641418,109.029175 909.210449,117.773277 909.079773,126.294327 
	C908.687988,151.839905 915.541565,175.228653 933.961487,193.771439 
	C950.981262,210.904785 971.023193,221.723557 996.257202,220.278214 
	C1006.361633,219.699448 1006.386780,220.138016 1006.386292,209.869583 
	C1006.385254,189.372131 1006.369141,168.874664 1006.386414,148.377228 
	C1006.421814,106.383392 1006.449341,64.389496 1006.575317,22.395903 
	C1006.584290,19.414801 1005.803162,18.149126 1002.658508,18.274979 
	C997.833496,18.468073 992.995117,18.313866 988.162476,18.327805 
	C981.642029,18.346609 981.619324,18.355125 981.637756,24.892920 
	C981.779663,75.216301 981.931396,125.539658 982.078674,175.863022 
	C982.086243,178.456375 982.079651,181.049759 982.079651,184.874664 
	C976.305359,182.177490 971.070679,180.647720 966.908142,177.636047 
	C943.948792,161.024277 936.525024,137.228836 944.381226,109.783859 
	C955.765259,70.014366 936.231445,34.630035 900.265869,22.173336 
	C887.184814,17.642672 873.660828,18.578777 860.190796,18.231249 
	C855.215088,18.102875 854.155151,19.793968 854.166870,24.483011 
	C854.320618,86.141617 854.276428,147.800705 854.281860,210.441986 
M54.848454,97.498009 
	C54.848454,71.715576 54.848454,45.933147 54.848454,19.772970 
	C47.517166,19.442873 40.563881,19.291883 33.640213,18.757273 
	C29.486046,18.436504 28.154396,19.863985 28.162033,24.061152 
	C28.278091,87.861389 28.251682,151.661880 28.278664,215.462311 
	C28.279409,217.227753 28.502989,218.993103 28.626133,220.809723 
	C37.584225,220.809723 45.989017,220.809723 54.908676,220.809723 
	C54.908676,218.666290 54.908886,216.873596 54.908646,215.080902 
	C54.905674,193.091339 54.877853,171.101700 54.939705,149.112320 
	C54.945595,147.018158 54.806282,144.374405 55.937737,142.925491 
	C61.508121,135.792267 67.484650,128.976212 73.649857,121.653809 
	C75.521881,124.348251 76.968254,126.359291 78.342377,128.418533 
	C97.290070,156.813049 116.375824,185.117538 135.038773,213.698090 
	C138.620789,219.183594 142.296799,221.883270 149.031204,221.255554 
	C156.019501,220.604172 163.115707,221.110458 171.139359,221.110458 
	C168.903091,217.645355 167.356613,215.139725 165.704590,212.705704 
	C141.956024,177.715591 118.211136,142.722946 94.394371,107.779282 
	C92.777359,105.406830 93.007416,103.842949 94.853157,101.696175 
	C113.957031,79.476379 132.959641,57.169506 151.981766,34.879467 
	C156.311768,29.805590 160.608597,24.703381 165.581924,18.833828 
	C155.229675,18.833828 146.090836,18.621574 136.974762,18.983154 
	C134.697449,19.073484 131.774719,20.433861 130.362793,22.187872 
	C106.354462,52.013256 82.539124,81.993996 58.673199,111.934082 
	C57.742386,113.101791 56.731892,114.205978 54.836552,116.413712 
	C54.836552,109.384781 54.836552,103.941078 54.848454,97.498009 
M193.168625,116.499229 
	C193.161133,98.352852 193.109863,80.206345 193.162415,62.060146 
	C193.194412,51.017147 191.457504,49.160587 180.052048,49.130974 
	C177.255737,49.123711 174.461044,49.719517 171.660065,49.978096 
	C167.999847,50.315990 166.800339,52.123608 166.816254,55.907116 
	C166.986618,96.363945 166.958862,136.821594 167.004349,177.278992 
	C167.012482,184.512115 168.272537,186.543091 175.446533,187.605835 
	C179.569412,188.216583 184.002502,187.507462 188.179153,186.749222 
	C191.878647,186.077591 193.258011,183.454193 193.222153,179.429733 
	C193.038223,158.787766 193.162506,138.143051 193.168625,116.499229 
M653.355774,245.690872 
	C657.020020,244.615494 660.762146,243.740189 664.307434,242.359344 
	C665.600281,241.855804 667.399963,239.977188 667.233032,239.032745 
	C666.986328,237.637238 665.393433,235.786285 664.018250,235.402237 
	C657.626587,233.617355 651.185608,231.687119 644.629883,230.866425 
	C612.110840,226.795441 579.462646,226.980881 546.831116,229.074326 
	C537.061096,229.701096 527.310364,231.322189 517.688660,233.195679 
	C514.313110,233.852936 508.812103,236.487167 508.699554,238.469498 
	C508.418701,243.415543 514.076111,243.679337 517.678406,244.227631 
	C530.829651,246.229294 544.034180,248.630112 557.281738,249.098953 
	C589.071045,250.223984 620.927368,251.209091 653.355774,245.690872 
z"/>
<path fill="#E7BE66" opacity="1.000000" stroke="none" 
	d="
M854.281860,209.950836 
	C854.276428,147.800705 854.320618,86.141617 854.166870,24.483011 
	C854.155151,19.793968 855.215088,18.102875 860.190796,18.231249 
	C873.660828,18.578777 887.184814,17.642672 900.265869,22.173336 
	C936.231445,34.630035 955.765259,70.014366 944.381226,109.783859 
	C936.525024,137.228836 943.948792,161.024277 966.908142,177.636047 
	C971.070679,180.647720 976.305359,182.177490 982.079651,184.874664 
	C982.079651,181.049759 982.086243,178.456375 982.078674,175.863022 
	C981.931396,125.539658 981.779663,75.216301 981.637756,24.892920 
	C981.619324,18.355125 981.642029,18.346609 988.162476,18.327805 
	C992.995117,18.313866 997.833496,18.468073 1002.658508,18.274979 
	C1005.803162,18.149126 1006.584290,19.414801 1006.575317,22.395903 
	C1006.449341,64.389496 1006.421814,106.383392 1006.386414,148.377228 
	C1006.369141,168.874664 1006.385254,189.372131 1006.386292,209.869583 
	C1006.386780,220.138016 1006.361633,219.699448 996.257202,220.278214 
	C971.023193,221.723557 950.981262,210.904785 933.961487,193.771439 
	C915.541565,175.228653 908.687988,151.839905 909.079773,126.294327 
	C909.210449,117.773277 910.641418,109.029175 913.015991,100.832596 
	C919.312744,79.097237 907.271606,55.477318 884.839478,51.804512 
	C878.923279,50.835876 878.811768,50.654556 878.851135,57.040543 
	C879.171326,109.029411 879.503601,161.018204 879.829773,213.007034 
	C879.843140,215.138855 879.831543,217.270859 879.831543,219.793335 
	C871.274719,219.793335 863.212769,219.793335 854.281860,219.793335 
	C854.281860,216.625122 854.281860,213.533554 854.281860,209.950836 
z"/>
<path fill="#E7BE67" opacity="1.000000" stroke="none" 
	d="
M368.155182,18.889286 
	C368.399902,20.643164 368.854370,22.396601 368.858063,24.150984 
	C368.920441,53.853863 368.926788,83.556862 368.866974,114.133560 
	C368.842651,123.993797 368.896912,132.980301 368.951172,141.966812 
	C368.932129,164.790421 368.974640,187.614334 368.869659,210.437546 
	C368.811768,223.019730 370.286194,220.745895 358.369873,221.213974 
	C332.371124,222.235214 311.612823,211.504181 294.541229,192.729294 
	C282.104279,179.051422 276.553650,162.314331 273.821320,144.383514 
	C271.244720,127.474876 273.852234,111.098320 277.218750,94.502823 
	C280.997437,75.875320 270.300995,52.377327 242.520584,51.222893 
	C241.893555,51.196838 241.255890,51.427002 240.590469,51.543365 
	C240.590469,107.916161 240.590469,164.128006 240.590469,221.124786 
	C233.480438,221.124786 226.220016,221.221329 218.970520,220.983917 
	C218.197479,220.958603 216.929504,219.021484 216.850235,217.903244 
	C216.568054,213.923218 216.678253,209.913757 216.679382,205.915451 
	C216.696411,145.605942 216.786789,85.296242 216.621918,24.987240 
	C216.607819,19.826714 218.039001,18.369572 223.073715,18.715511 
	C233.682968,19.444489 244.525787,18.495445 254.921432,20.280807 
	C283.245544,25.145241 305.307037,50.572140 307.728760,79.219597 
	C308.712097,90.851585 307.338806,102.064545 304.178284,113.241180 
	C296.011688,142.120743 311.291229,174.251923 338.728058,186.292023 
	C339.435486,186.602478 340.245911,186.678146 341.976562,187.098465 
	C341.976562,183.670364 341.988007,180.749588 341.974854,177.828903 
	C341.746521,127.019051 341.506134,76.209229 341.316223,25.399225 
	C341.308380,23.295385 341.766937,21.189802 342.720947,19.192995 
	C351.674164,19.163734 359.914673,19.026510 368.155182,18.889286 
z"/>
<path fill="#FEFCFB" opacity="1.000000" stroke="none" 
	d="
M590.007385,18.115189 
	C590.173828,18.081915 590.340332,18.048639 591.209473,17.999496 
	C597.604187,18.018768 603.296143,18.053909 608.972290,18.357155 
	C609.140076,19.119646 609.323730,19.614035 609.536133,20.533958 
	C611.165405,27.229294 612.587524,33.551342 614.406372,39.757122 
	C617.428955,50.069801 620.077881,60.328823 615.190308,71.103027 
	C612.547668,75.902832 610.139648,80.470718 607.685547,85.013664 
	C605.704346,88.681107 606.045898,91.313995 610.090515,93.615509 
	C616.361694,97.183998 616.999512,99.800468 615.592224,106.929497 
	C614.502441,112.450302 613.412781,118.072021 613.327026,123.664261 
	C613.223267,130.431442 610.850708,135.555603 605.462708,139.497787 
	C603.557495,140.891800 601.867126,142.579361 600.078613,144.132874 
	C607.474609,144.774506 612.053223,140.599319 614.031372,134.972214 
	C616.814575,127.055031 618.433533,118.656021 619.813721,110.340782 
	C620.941772,103.543945 619.166565,97.006798 614.636536,91.624008 
	C612.284058,88.828697 612.063477,86.045372 613.161499,82.824135 
	C614.499451,78.899178 615.761597,74.948357 617.270630,70.713058 
	C618.160706,68.540802 618.936218,66.693420 619.497192,64.783035 
	C624.303528,48.414684 624.500671,32.899818 611.292908,19.659409 
	C622.125610,18.934603 619.376160,17.256369 623.631226,26.076176 
	C625.799866,30.571253 627.373779,35.402184 629.933960,39.648796 
	C634.631836,47.441414 633.563538,54.499828 628.449219,61.465000 
	C627.366394,62.939678 626.442139,64.530624 625.362183,66.007561 
	C620.665161,72.431351 619.453003,79.204910 622.903137,86.640663 
	C627.900757,97.411598 629.596680,108.504250 625.853333,120.086189 
	C625.459351,121.305115 625.632141,122.707245 625.426819,124.411621 
	C625.383362,125.862045 625.455017,126.925217 625.455933,128.404236 
	C625.480591,130.212723 625.576050,131.605392 625.530273,133.408600 
	C624.395691,143.485092 624.387634,143.455338 615.034607,145.986130 
	C612.960022,146.547470 611.006470,147.572906 608.923279,148.082382 
	C604.451172,149.176102 599.958862,150.668671 595.422363,150.882126 
	C590.916443,151.094131 588.067017,147.965439 587.482727,143.448898 
	C586.920288,139.101593 589.743042,137.508286 593.452454,136.240631 
	C595.585754,135.511597 598.013550,133.750366 598.951721,131.800720 
	C601.096924,127.343071 602.601868,122.541328 604.010803,117.774101 
	C605.966980,111.155312 600.356567,103.721893 593.510681,104.012352 
	C572.509949,104.903328 551.929321,108.323212 531.521240,114.863426 
	C523.067078,118.558571 515.000916,122.245483 506.633850,126.085083 
	C497.917358,133.488007 497.987488,139.405548 506.983185,145.885803 
	C510.731964,148.586334 514.857544,150.945160 519.119080,152.722473 
	C543.530884,162.903702 568.966125,165.550049 594.983887,161.624329 
	C615.935852,158.462967 635.741577,151.642960 653.343018,139.593750 
	C658.173828,136.286804 662.427979,131.797195 666.037659,127.144897 
	C669.457886,122.736740 668.433777,118.225456 663.982056,114.874252 
	C655.729065,108.661560 645.943604,107.132034 635.574219,105.792381 
	C635.816895,108.416855 635.968567,110.356918 636.180176,112.290436 
	C636.775940,117.733063 637.825317,123.167404 637.896179,128.615417 
	C637.981018,135.135513 633.912170,140.069672 628.989685,141.173645 
	C628.633423,135.497375 628.272705,129.749069 627.991577,123.585197 
	C629.106628,114.449577 630.142151,105.729523 631.469238,97.012482 
	C632.344055,97.018776 632.927246,97.022041 633.510437,97.025307 
	C633.842224,97.375748 634.174072,97.726189 634.832947,98.560760 
	C635.771362,99.035965 636.382751,99.027031 636.994080,99.018105 
	C644.247925,100.726913 651.795715,101.667862 658.693054,104.308029 
	C672.109985,109.443764 679.008728,123.299370 677.533813,139.999069 
	C674.317444,176.416534 653.928467,201.749435 619.091125,213.047562 
	C588.832581,222.860733 559.440735,220.944183 531.670471,205.485443 
	C509.673645,193.240570 497.903717,173.272507 494.706390,148.617966 
	C492.902161,134.705536 498.667938,123.820366 510.893616,116.225281 
	C526.651978,106.435509 543.955994,101.508919 562.046997,98.891556 
	C573.391907,97.250206 584.806213,96.088615 596.733337,94.645988 
	C595.943115,83.874962 603.602661,76.769020 609.630859,68.277672 
	C610.107910,67.293678 610.140381,66.669617 610.172852,66.045555 
	C610.149902,64.625015 610.126892,63.204472 610.321899,61.217064 
	C610.292603,60.075645 610.045349,59.501091 609.798096,58.926529 
	C608.834167,57.029926 607.870178,55.133324 606.864868,52.541916 
	C605.996155,50.549553 605.168884,49.251995 604.341553,47.954445 
	C603.275085,44.867611 602.208618,41.780773 600.954956,37.944103 
	C599.232361,36.809505 597.704895,36.135197 596.160095,36.092972 
	C591.037903,35.952942 585.909485,36.045887 580.783447,36.039505 
	C573.961853,36.031010 573.961853,36.026989 574.034485,29.244228 
	C579.372498,29.149334 584.710510,29.054440 590.958618,28.932964 
	C593.995483,28.956804 596.132446,29.142200 598.243408,28.982349 
	C598.954712,28.928484 599.599609,27.998198 600.274841,27.468460 
	C599.611877,26.915333 598.958252,25.904943 598.284241,25.891148 
	C595.843994,25.841200 593.396851,26.125908 590.952332,26.284321 
	C590.290527,24.127707 589.628662,21.971094 589.217529,19.289631 
	C589.692749,18.585449 589.872498,18.368919 590.007385,18.115189 
z"/>
<path fill="#FDFBFB" opacity="1.000000" stroke="none" 
	d="
M752.973755,16.878784 
	C757.014954,16.917612 761.056091,16.956442 765.828430,17.124105 
	C768.054749,17.234793 769.549988,17.216644 771.045166,17.198498 
	C773.438110,17.442411 775.831116,17.686325 778.887939,18.093363 
	C780.406372,18.263189 781.260925,18.269894 782.115540,18.276596 
	C783.152588,18.486057 784.189575,18.695517 785.831543,19.096714 
	C786.996033,19.297848 787.555603,19.307243 788.115173,19.316639 
	C788.830200,19.527046 789.545288,19.737455 790.834961,20.162258 
	C791.972473,20.416430 792.535400,20.456209 793.098328,20.495985 
	C804.565369,24.002556 815.154236,28.949551 822.974731,38.517754 
	C840.290161,59.702892 839.990662,103.304588 803.112244,120.515129 
	C801.021606,121.490799 798.886414,122.371002 796.774475,123.294548 
	C796.977844,123.791374 797.021057,124.271812 797.235168,124.366776 
	C814.585266,132.060181 821.192627,147.384460 825.664185,164.257446 
	C830.429260,182.238388 835.247253,200.205292 840.023010,218.183411 
	C840.142456,218.632965 840.038086,219.141968 840.038086,220.042252 
	C831.970886,220.042252 823.999207,220.254639 816.059570,219.845322 
	C814.640259,219.772156 812.592346,217.335312 812.124939,215.635132 
	C808.074829,200.902222 804.487122,186.041763 800.402954,171.318802 
	C798.499573,164.457352 796.287537,157.596405 793.353821,151.125885 
	C789.005737,141.535980 781.075562,136.075119 770.098938,133.938263 
	C768.606995,133.695877 767.748413,133.660248 766.889893,133.624603 
	C756.798340,133.624603 746.706787,133.624603 736.178955,133.624603 
	C736.178955,162.164124 736.178955,190.741852 736.178955,219.719910 
	C727.379639,219.719910 719.006165,219.719910 709.873840,219.719910 
	C709.873840,217.733810 709.873291,215.809570 709.873901,213.885330 
	C709.892517,156.252792 709.912292,98.620270 709.923279,40.987740 
	C709.923584,39.657528 709.825012,38.327297 709.742859,36.121628 
	C709.648926,33.797806 709.584717,32.349430 709.520508,30.901054 
	C709.587402,29.236423 709.654297,27.571791 709.744263,25.095524 
	C709.695190,23.159172 709.622986,22.034452 709.550720,20.909733 
	C709.636353,20.125765 709.721985,19.341797 710.323120,18.075365 
	C712.492493,17.575481 714.146545,17.568089 715.800232,17.539038 
	C728.191406,17.321356 740.582581,17.099401 752.973755,16.878784 
M797.223755,48.257229 
	C791.537781,45.281662 786.140137,41.356880 780.106934,39.524597 
	C766.808899,35.485950 753.095215,37.005489 739.502014,38.458096 
	C736.857117,38.740734 735.892151,40.100979 735.944153,42.788414 
	C736.095337,50.604443 736.032288,58.424835 736.032776,66.243515 
	C736.033630,80.383797 736.007080,94.524101 736.025696,108.664352 
	C736.028442,110.740814 735.458374,113.327148 738.933899,113.208153 
	C751.221008,112.787437 763.645874,113.344986 775.758789,111.662331 
	C790.393555,109.629333 801.483032,101.363251 805.960938,86.703979 
	C810.208557,72.798714 808.274353,59.714832 797.223755,48.257229 
z"/>
<path fill="#FDFAFA" opacity="1.000000" stroke="none" 
	d="
M54.842503,97.997696 
	C54.836552,103.941078 54.836552,109.384781 54.836552,116.413712 
	C56.731892,114.205978 57.742386,113.101791 58.673199,111.934082 
	C82.539124,81.993996 106.354462,52.013256 130.362793,22.187872 
	C131.774719,20.433861 134.697449,19.073484 136.974762,18.983154 
	C146.090836,18.621574 155.229675,18.833828 165.581924,18.833828 
	C160.608597,24.703381 156.311768,29.805590 151.981766,34.879467 
	C132.959641,57.169506 113.957031,79.476379 94.853157,101.696175 
	C93.007416,103.842949 92.777359,105.406830 94.394371,107.779282 
	C118.211136,142.722946 141.956024,177.715591 165.704590,212.705704 
	C167.356613,215.139725 168.903091,217.645355 171.139359,221.110458 
	C163.115707,221.110458 156.019501,220.604172 149.031204,221.255554 
	C142.296799,221.883270 138.620789,219.183594 135.038773,213.698090 
	C116.375824,185.117538 97.290070,156.813049 78.342377,128.418533 
	C76.968254,126.359291 75.521881,124.348251 73.649857,121.653809 
	C67.484650,128.976212 61.508121,135.792267 55.937737,142.925491 
	C54.806282,144.374405 54.945595,147.018158 54.939705,149.112320 
	C54.877853,171.101700 54.905674,193.091339 54.908646,215.080902 
	C54.908886,216.873596 54.908676,218.666290 54.908676,220.809723 
	C45.989017,220.809723 37.584225,220.809723 28.626133,220.809723 
	C28.502989,218.993103 28.279409,217.227753 28.278664,215.462311 
	C28.251682,151.661880 28.278091,87.861389 28.162033,24.061152 
	C28.154396,19.863985 29.486046,18.436504 33.640213,18.757273 
	C40.563881,19.291883 47.517166,19.442873 54.848454,19.772970 
	C54.848454,45.933147 54.848454,71.715576 54.842503,97.997696 
z"/>
<path fill="#FDFAFA" opacity="1.000000" stroke="none" 
	d="
M369.239868,141.797958 
	C368.896912,132.980301 368.842651,123.993797 368.861572,114.616440 
	C370.380219,112.707977 371.948395,111.288612 373.252777,109.658157 
	C395.725250,81.568169 418.297699,53.556019 440.494141,25.249178 
	C444.643219,19.957954 448.912323,17.706192 455.615814,18.305136 
	C462.838074,18.950430 470.162628,18.451029 478.791595,18.451029 
	C472.148438,26.307108 466.434357,33.129375 460.650604,39.892021 
	C443.326569,60.148159 426.029449,80.427963 408.567963,100.565125 
	C406.314087,103.164360 406.613342,104.838692 408.383881,107.427078 
	C432.363403,142.483231 456.245392,177.606094 480.135712,212.723206 
	C481.434723,214.632690 482.594391,216.636978 484.594147,219.838028 
	C478.205078,219.838028 472.730804,219.249603 467.432251,219.964203 
	C457.334564,221.326019 451.508606,217.540314 445.914978,208.709839 
	C427.829559,180.159119 408.496765,152.398483 389.634399,124.340286 
	C388.995026,123.389175 388.246063,122.511726 387.101013,121.015656 
	C381.112732,128.040253 375.320679,134.834671 369.239868,141.797958 
z"/>
<path fill="#FDFBFB" opacity="1.000000" stroke="none" 
	d="
M193.173843,116.999268 
	C193.162506,138.143051 193.038223,158.787766 193.222153,179.429733 
	C193.258011,183.454193 191.878647,186.077591 188.179153,186.749222 
	C184.002502,187.507462 179.569412,188.216583 175.446533,187.605835 
	C168.272537,186.543091 167.012482,184.512115 167.004349,177.278992 
	C166.958862,136.821594 166.986618,96.363945 166.816254,55.907116 
	C166.800339,52.123608 167.999847,50.315990 171.660065,49.978096 
	C174.461044,49.719517 177.255737,49.123711 180.052048,49.130974 
	C191.457504,49.160587 193.194412,51.017147 193.162415,62.060146 
	C193.109863,80.206345 193.161133,98.352852 193.173843,116.999268 
z"/>
<path fill="#FCF8F8" opacity="1.000000" stroke="none" 
	d="
M652.941406,245.779266 
	C620.927368,251.209091 589.071045,250.223984 557.281738,249.098953 
	C544.034180,248.630112 530.829651,246.229294 517.678406,244.227631 
	C514.076111,243.679337 508.418701,243.415543 508.699554,238.469498 
	C508.812103,236.487167 514.313110,233.852936 517.688660,233.195679 
	C527.310364,231.322189 537.061096,229.701096 546.831116,229.074326 
	C579.462646,226.980881 612.110840,226.795441 644.629883,230.866425 
	C651.185608,231.687119 657.626587,233.617355 664.018250,235.402237 
	C665.393433,235.786285 666.986328,237.637238 667.233032,239.032745 
	C667.399963,239.977188 665.600281,241.855804 664.307434,242.359344 
	C660.762146,243.740189 657.020020,244.615494 652.941406,245.779266 
z"/>
<path fill="#FBF6F3" opacity="1.000000" stroke="none" 
	d="
M633.498657,96.627365 
	C632.927246,97.022041 632.344055,97.018776 631.348083,96.634018 
	C627.870789,87.061790 627.109741,77.787216 630.127930,68.438011 
	C631.348816,64.656090 632.849426,60.965431 634.144348,57.206219 
	C636.829956,49.409790 637.438538,41.615025 633.397583,34.076664 
	C630.397278,28.479424 627.134216,23.023005 623.988159,17.503870 
	C649.747375,17.445477 675.507385,17.486444 701.265137,17.261482 
	C708.025208,17.202440 704.945496,21.926836 705.070190,25.430962 
	C697.723938,25.875792 690.896240,25.744011 684.068298,25.731865 
	C670.742798,25.708157 657.416565,25.697210 644.092407,25.841488 
	C642.578369,25.857885 641.075500,26.902018 639.567444,27.469599 
	C639.765137,28.030962 639.962891,28.592323 640.160583,29.153687 
	C661.751160,29.153687 683.341797,29.153687 705.001892,29.153687 
	C705.311401,31.685925 705.571777,33.816204 705.832153,35.946487 
	C705.832153,35.946487 705.638428,36.205734 705.351440,36.534470 
	C704.666626,37.139744 704.268799,37.416290 703.870972,37.692837 
	C700.247437,37.610653 696.623840,37.528469 692.118103,37.377022 
	C688.119812,37.419323 685.003784,37.530884 681.887695,37.642445 
	C674.930847,37.579884 667.973999,37.517326 660.132812,37.388939 
	C656.794006,37.445023 654.339478,37.566936 651.884949,37.688850 
	C650.556030,37.631081 649.227051,37.573311 647.158997,37.454388 
	C644.926758,37.503658 643.433716,37.614086 641.940613,37.724514 
	C636.929138,36.747852 637.569092,39.609531 638.701050,42.617451 
	C640.507751,47.418350 642.754517,52.077911 644.230713,56.973480 
	C646.724548,65.243973 645.089661,72.684929 638.890686,79.038742 
	C634.250244,83.795128 631.544006,89.323997 633.498657,96.627365 
z"/>
<path fill="#E6BF7F" opacity="1.000000" stroke="none" 
	d="
M623.558411,17.341408 
	C627.134216,23.023005 630.397278,28.479424 633.397583,34.076664 
	C637.438538,41.615025 636.829956,49.409790 634.144348,57.206219 
	C632.849426,60.965431 631.348816,64.656090 630.127930,68.438011 
	C627.109741,77.787216 627.870789,87.061790 631.056458,96.631004 
	C630.142151,105.729523 629.106628,114.449577 627.694641,123.588715 
	C626.726074,124.013329 626.133972,124.018845 625.541931,124.024368 
	C625.632141,122.707245 625.459351,121.305115 625.853333,120.086189 
	C629.596680,108.504250 627.900757,97.411598 622.903137,86.640663 
	C619.453003,79.204910 620.665161,72.431351 625.362183,66.007561 
	C626.442139,64.530624 627.366394,62.939678 628.449219,61.465000 
	C633.563538,54.499828 634.631836,47.441414 629.933960,39.648796 
	C627.373779,35.402184 625.799866,30.571253 623.631226,26.076176 
	C619.376160,17.256369 622.125610,18.934603 610.911743,19.693644 
	C610.015930,20.066214 609.761658,20.087320 609.507385,20.108425 
	C609.323730,19.614035 609.140076,19.119646 609.000000,18.127743 
	C609.043579,17.630228 609.110229,17.173008 609.110229,17.173008 
	C613.783020,17.174986 618.455872,17.176964 623.558411,17.341408 
z"/>
<path fill="#AE4545" opacity="1.000000" stroke="none" 
	d="
M706.201538,35.952385 
	C705.571777,33.816204 705.311401,31.685925 705.001892,29.153687 
	C683.341797,29.153687 661.751160,29.153687 640.160583,29.153687 
	C639.962891,28.592323 639.765137,28.030962 639.567444,27.469599 
	C641.075500,26.902018 642.578369,25.857885 644.092407,25.841488 
	C657.416565,25.697210 670.742798,25.708157 684.068298,25.731865 
	C690.896240,25.744011 697.723938,25.875792 705.059326,25.948374 
	C706.161255,28.234201 706.755554,30.525158 707.404663,33.027199 
	C708.026794,32.277130 708.516235,31.687042 709.263062,30.999006 
	C709.584717,32.349430 709.648926,33.797806 709.616028,35.674980 
	C708.536255,36.055275 707.553528,36.006775 706.201538,35.952385 
z"/>
<path fill="#AE4545" opacity="1.000000" stroke="none" 
	d="
M752.639648,16.639252 
	C740.582581,17.099401 728.191406,17.321356 715.800232,17.539038 
	C714.146545,17.568089 712.492493,17.575481 710.369690,17.682400 
	C710.818054,17.226404 711.734802,16.207693 712.652710,16.206587 
	C725.870239,16.190659 739.087891,16.311623 752.639648,16.639252 
z"/>
<path fill="#F3E2E2" opacity="1.000000" stroke="none" 
	d="
M573.670288,29.254372 
	C573.961853,36.026989 573.961853,36.031010 580.783447,36.039505 
	C585.909485,36.045887 591.037903,35.952942 596.160095,36.092972 
	C597.704895,36.135197 599.232361,36.809505 600.897339,37.564445 
	C593.616089,37.800568 586.205811,37.620094 578.794373,37.545940 
	C571.814514,37.476105 571.237122,36.656292 573.670288,29.254372 
z"/>
<path fill="#EFC97E" opacity="1.000000" stroke="none" 
	d="
M367.774597,18.678501 
	C359.914673,19.026510 351.674164,19.163734 343.080872,19.028923 
	C350.950104,18.660498 359.172058,18.564106 367.774597,18.678501 
z"/>
<path fill="#A32D2D" opacity="1.000000" stroke="none" 
	d="
M608.778320,16.907207 
	C609.110229,17.173008 609.043579,17.630228 609.015869,17.859640 
	C603.296143,18.053909 597.604187,18.018768 591.448242,17.910994 
	C592.370361,17.229805 593.751770,16.118511 595.143433,16.105587 
	C599.575745,16.064421 604.011841,16.431837 608.778320,16.907207 
z"/>
<path fill="#A93A3A" opacity="1.000000" stroke="none" 
	d="
M590.915222,26.590752 
	C593.396851,26.125908 595.843994,25.841200 598.284241,25.891148 
	C598.958252,25.904943 599.611877,26.915333 600.274841,27.468460 
	C599.599609,27.998198 598.954712,28.928484 598.243408,28.982349 
	C596.132446,29.142200 593.995483,28.956804 591.412354,28.825661 
	C590.930115,28.129019 590.904114,27.513102 590.915222,26.590752 
z"/>
<path fill="#AE4545" opacity="1.000000" stroke="none" 
	d="
M682.107300,37.920319 
	C685.003784,37.530884 688.119812,37.419323 691.675415,37.475689 
	C688.852295,37.828476 685.589661,38.013332 682.107300,37.920319 
z"/>
<path fill="#AE4545" opacity="1.000000" stroke="none" 
	d="
M652.098450,37.952354 
	C654.339478,37.566936 656.794006,37.445023 659.682312,37.489487 
	C657.514709,37.842529 654.913330,38.029194 652.098450,37.952354 
z"/>
<path fill="#AE4545" opacity="1.000000" stroke="none" 
	d="
M770.800659,16.951294 
	C769.549988,17.216644 768.054749,17.234793 766.290344,17.067833 
	C767.532837,16.823183 769.044495,16.763638 770.800659,16.951294 
z"/>
<path fill="#AE4545" opacity="1.000000" stroke="none" 
	d="
M642.163086,37.975452 
	C643.433716,37.614086 644.926758,37.503658 646.769897,37.551903 
	C645.541748,37.882511 643.963684,38.054451 642.163086,37.975452 
z"/>
<path fill="#AE4545" opacity="1.000000" stroke="none" 
	d="
M709.278076,21.027079 
	C709.622986,22.034452 709.695190,23.159172 709.641357,24.690311 
	C709.345398,23.779295 709.175354,22.461861 709.278076,21.027079 
z"/>
<path fill="#F3E2E2" opacity="1.000000" stroke="none" 
	d="
M604.339722,48.288708 
	C605.168884,49.251995 605.996155,50.549553 606.778687,52.208160 
	C605.935181,51.253796 605.136536,49.938385 604.339722,48.288708 
z"/>
<path fill="#AE4545" opacity="1.000000" stroke="none" 
	d="
M703.908691,37.976402 
	C704.268799,37.416290 704.666626,37.139744 705.385437,36.692673 
	C705.573242,37.396763 705.440063,38.271378 705.306885,39.145996 
	C704.853394,38.850655 704.399902,38.555313 703.908691,37.976402 
z"/>
<path fill="#AE4545" opacity="1.000000" stroke="none" 
	d="
M781.980713,18.045532 
	C781.260925,18.269894 780.406372,18.263189 779.288818,18.057335 
	C779.965881,17.843613 780.905884,17.829039 781.980713,18.045532 
z"/>
<path fill="#AE4545" opacity="1.000000" stroke="none" 
	d="
M767.008301,133.867706 
	C767.748413,133.660248 768.606995,133.695877 769.717529,133.950043 
	C769.021912,134.149307 768.074280,134.130051 767.008301,133.867706 
z"/>
<path fill="#FBF6F3" opacity="1.000000" stroke="none" 
	d="
M636.773071,98.866257 
	C636.382751,99.027031 635.771362,99.035965 635.068542,98.835594 
	C635.502014,98.655663 636.027039,98.685028 636.773071,98.866257 
z"/>
<path fill="#F3E2E2" opacity="1.000000" stroke="none" 
	d="
M609.974670,66.244888 
	C610.140381,66.669617 610.107910,67.293678 609.859741,67.996078 
	C609.688293,67.531021 609.732361,66.987625 609.974670,66.244888 
z"/>
<path fill="#F3E2E2" opacity="1.000000" stroke="none" 
	d="
M609.701294,59.186745 
	C610.045349,59.501091 610.292603,60.075645 610.374084,60.793579 
	C610.007019,60.440285 609.805725,59.943615 609.701294,59.186745 
z"/>
<path fill="#AE4545" opacity="1.000000" stroke="none" 
	d="
M793.033447,20.263744 
	C792.535400,20.456209 791.972473,20.416430 791.210388,20.158714 
	C791.663696,19.971018 792.316101,20.001261 793.033447,20.263744 
z"/>
<path fill="#AE4545" opacity="1.000000" stroke="none" 
	d="
M788.031921,19.099245 
	C787.555603,19.307243 786.996033,19.297848 786.229736,19.081337 
	C786.664917,18.876764 787.306824,18.879309 788.031921,19.099245 
z"/>
<path fill="#F3E2E2" opacity="1.000000" stroke="none" 
	d="
M589.719910,18.032539 
	C589.872498,18.368919 589.692749,18.585449 589.292847,18.884163 
	C589.222412,18.652325 589.327393,18.301107 589.719910,18.032539 
z"/>
<path fill="#E9C26D" opacity="1.000000" stroke="none" 
	d="
M625.426819,124.411621 
	C626.133972,124.018845 626.726074,124.013329 627.614990,124.004288 
	C628.272705,129.749069 628.633423,135.497375 628.989685,141.173645 
	C633.912170,140.069672 637.981018,135.135513 637.896179,128.615417 
	C637.825317,123.167404 636.775940,117.733063 636.180176,112.290436 
	C635.968567,110.356918 635.816895,108.416855 635.574219,105.792381 
	C645.943604,107.132034 655.729065,108.661560 663.982056,114.874252 
	C668.433777,118.225456 669.457886,122.736740 666.037659,127.144897 
	C662.427979,131.797195 658.173828,136.286804 653.343018,139.593750 
	C635.741577,151.642960 615.935852,158.462967 594.983887,161.624329 
	C568.966125,165.550049 543.530884,162.903702 519.119080,152.722473 
	C514.857544,150.945160 510.731964,148.586334 506.983185,145.885803 
	C497.987488,139.405548 497.917358,133.488007 506.866272,126.264557 
	C507.652222,126.588974 507.904816,126.886612 508.098999,127.590385 
	C507.843689,134.585388 510.208527,137.409164 517.518005,140.001266 
	C519.131348,140.573395 521.482300,141.990143 521.638062,143.247833 
	C522.358582,149.063782 525.977173,152.038956 530.871094,153.981247 
	C544.844727,159.527023 558.732178,158.099823 572.105957,152.301666 
	C575.266113,150.931564 577.424866,146.818100 579.537537,143.630737 
	C580.770203,141.770981 580.940308,139.225693 581.688477,137.022812 
	C585.086914,127.016769 585.098389,127.024162 575.098206,122.830765 
	C574.830017,122.718338 574.664001,122.362198 574.453369,122.117058 
	C575.500305,116.190811 574.708008,114.548340 568.913513,113.336914 
	C565.419189,112.606361 561.646729,112.375885 558.113831,112.823959 
	C549.374390,113.932343 540.700806,115.560509 531.991699,116.625641 
	C531.958130,115.799385 531.933655,115.327293 531.909180,114.855194 
	C551.929321,108.323212 572.509949,104.903328 593.510681,104.012352 
	C600.356567,103.721893 605.966980,111.155312 604.010803,117.774101 
	C602.601868,122.541328 601.096924,127.343071 598.951721,131.800720 
	C598.013550,133.750366 595.585754,135.511597 593.452454,136.240631 
	C589.743042,137.508286 586.920288,139.101593 587.482727,143.448898 
	C588.067017,147.965439 590.916443,151.094131 595.422363,150.882126 
	C599.958862,150.668671 604.451172,149.176102 608.923279,148.082382 
	C611.006470,147.572906 612.960022,146.547470 615.034607,145.986130 
	C624.387634,143.455338 624.395691,143.485092 625.771973,133.241516 
	C625.945496,131.105392 625.736084,129.546890 625.526611,127.988388 
	C625.455017,126.925217 625.383362,125.862045 625.426819,124.411621 
z"/>
<path fill="#EBC778" opacity="1.000000" stroke="none" 
	d="
M617.056519,71.008713 
	C615.761597,74.948357 614.499451,78.899178 613.161499,82.824135 
	C612.063477,86.045372 612.284058,88.828697 614.636536,91.624008 
	C619.166565,97.006798 620.941772,103.543945 619.813721,110.340782 
	C618.433533,118.656021 616.814575,127.055031 614.031372,134.972214 
	C612.053223,140.599319 607.474609,144.774506 600.078613,144.132874 
	C601.867126,142.579361 603.557495,140.891800 605.462708,139.497787 
	C610.850708,135.555603 613.223267,130.431442 613.327026,123.664261 
	C613.412781,118.072021 614.502441,112.450302 615.592224,106.929497 
	C616.999512,99.800468 616.361694,97.183998 610.090515,93.615509 
	C606.045898,91.313995 605.704346,88.681107 607.685547,85.013664 
	C610.139648,80.470718 612.547668,75.902832 615.604004,71.140152 
	C616.507141,70.959282 616.781799,70.983994 617.056519,71.008713 
z"/>
<path fill="#E9C470" opacity="1.000000" stroke="none" 
	d="
M617.270630,70.713058 
	C616.781799,70.983994 616.507141,70.959282 615.818726,70.897446 
	C620.077881,60.328823 617.428955,50.069801 614.406372,39.757122 
	C612.587524,33.551342 611.165405,27.229294 609.536133,20.533962 
	C609.761658,20.087320 610.015930,20.066214 610.651367,20.010872 
	C624.500671,32.899818 624.303528,48.414684 619.497192,64.783035 
	C618.936218,66.693420 618.160706,68.540802 617.270630,70.713058 
z"/>
<path fill="#EFD293" opacity="1.000000" stroke="none" 
	d="
M531.521179,114.863426 
	C531.933655,115.327293 531.958130,115.799385 531.704590,116.848419 
	C523.670166,120.678329 515.913757,123.931290 508.157410,127.184250 
	C507.904816,126.886612 507.652222,126.588974 507.167206,126.111862 
	C515.000916,122.245483 523.067078,118.558571 531.521179,114.863426 
z"/>
<path fill="#E6BF7F" opacity="1.000000" stroke="none" 
	d="
M625.455933,128.404236 
	C625.736084,129.546890 625.945496,131.105392 625.913208,132.830963 
	C625.576050,131.605392 625.480591,130.212723 625.455933,128.404236 
z"/>
<path fill="#9C1D1D" opacity="1.000000" stroke="none" 
	d="
M797.483276,48.505829 
	C808.274353,59.714832 810.208557,72.798714 805.960938,86.703979 
	C801.483032,101.363251 790.393555,109.629333 775.758789,111.662331 
	C763.645874,113.344986 751.221008,112.787437 738.933899,113.208153 
	C735.458374,113.327148 736.028442,110.740814 736.025696,108.664352 
	C736.007080,94.524101 736.033630,80.383797 736.032776,66.243515 
	C736.032288,58.424835 736.095337,50.604443 735.944153,42.788414 
	C735.892151,40.100979 736.857117,38.740734 739.502014,38.458096 
	C753.095215,37.005489 766.808899,35.485950 780.106934,39.524597 
	C786.140137,41.356880 791.537781,45.281662 797.483276,48.505829 
z"/>
<path fill="#FEFDFA" opacity="1.000000" stroke="none" 
	d="
M508.098999,127.590393 
	C515.913757,123.931290 523.670166,120.678329 531.713623,117.202591 
	C540.700806,115.560509 549.374390,113.932343 558.113831,112.823959 
	C561.646729,112.375885 565.419189,112.606361 568.913513,113.336914 
	C574.708008,114.548340 575.500305,116.190811 574.453369,122.117058 
	C574.664001,122.362198 574.830017,122.718338 575.098206,122.830765 
	C585.098389,127.024162 585.086914,127.016769 581.688477,137.022812 
	C580.940308,139.225693 580.770203,141.770981 579.537537,143.630737 
	C577.424866,146.818100 575.266113,150.931564 572.105957,152.301666 
	C558.732178,158.099823 544.844727,159.527023 530.871094,153.981247 
	C525.977173,152.038956 522.358582,149.063782 521.638062,143.247833 
	C521.482300,141.990143 519.131348,140.573395 517.518005,140.001266 
	C510.208527,137.409164 507.843689,134.585388 508.098999,127.590393 
M561.566528,131.792664 
	C562.072998,131.435410 562.579529,131.078140 563.085999,130.720886 
	C550.330933,131.600723 536.908264,129.100906 526.164246,138.281006 
	C526.267212,138.777664 526.370117,139.274307 526.473083,139.770950 
	C537.924744,137.166000 549.376343,134.561050 561.566528,131.792664 
M516.837280,125.200867 
	C515.922485,126.016335 515.007629,126.831795 514.092834,127.647263 
	C516.321594,128.829453 518.526794,129.439911 520.141296,128.722031 
	C526.573425,125.862091 532.821472,122.588295 538.114075,119.973457 
	C531.611938,119.036194 524.480103,121.594406 516.837280,125.200867 
M550.107849,118.442825 
	C550.062805,118.601593 549.969482,118.766174 549.987732,118.917290 
	C550.002686,119.040909 550.157959,119.253860 550.238281,119.248138 
	C556.223511,118.821999 562.207458,118.377983 568.191467,117.935387 
	C568.127625,117.277740 568.063782,116.620094 567.999878,115.962448 
	C562.224670,116.688354 556.449402,117.414268 550.107849,118.442825 
z"/>
<path fill="#EBC97E" opacity="1.000000" stroke="none" 
	d="
M561.197266,131.874390 
	C549.376343,134.561050 537.924744,137.166000 526.473083,139.770950 
	C526.370117,139.274307 526.267212,138.777664 526.164246,138.281006 
	C536.908264,129.100906 550.330933,131.600723 563.085999,130.720886 
	C562.579529,131.078140 562.072998,131.435410 561.197266,131.874390 
z"/>
<path fill="#EBC87A" opacity="1.000000" stroke="none" 
	d="
M517.168335,125.035522 
	C524.480103,121.594406 531.611938,119.036194 538.114075,119.973457 
	C532.821472,122.588295 526.573425,125.862091 520.141296,128.722031 
	C518.526794,129.439911 516.321594,128.829453 514.092834,127.647263 
	C515.007629,126.831795 515.922485,126.016335 517.168335,125.035522 
z"/>
<path fill="#F4E2BA" opacity="1.000000" stroke="none" 
	d="
M550.390991,118.291504 
	C556.449402,117.414268 562.224670,116.688354 567.999878,115.962448 
	C568.063782,116.620094 568.127625,117.277740 568.191467,117.935387 
	C562.207458,118.377983 556.223511,118.821999 550.238281,119.248138 
	C550.157959,119.253860 550.002686,119.040909 549.987732,118.917290 
	C549.969482,118.766174 550.062805,118.601593 550.390991,118.291504 
z"/>
</svg>